{
  "accessors": [
    {
      "bufferView": 2,
      "componentType": 5126,
      "count": 500,
      "max": [
        0.04763999953866005,
        0.7869769930839539,
        0.756322979927063
      ],
      "min": [
        -0.04763999953866005,
        -0.8465750217437744,
        -0.6025069952011108
      ],
      "type": "VEC3"
    },
    {
      "bufferView": 2,
      "byteOffset": 6000,
      "componentType": 5126,
      "count": 500,
      "max": [
        1.0,
        0.9983685612678528,
        0.9966076016426086
      ],
      "min": [
        -1.0,
        -0.9998176693916321,
        -0.9966491460800171
      ],
      "type": "VEC3"
    },
    {
      "bufferView": 1,
      "componentType": 5126,
      "count": 500,
      "max": [
        0.875,
        1.0
      ],
      "min": [
        0.125,
        0.0
      ],
      "type": "VEC2"
    },
    {
      "bufferView": 0,
      "componentType": 5125,
      "count": 972,
      "type": "SCALAR"
    }
  ],
  "asset": {
    "extras": {
      "author": "Super (https://sketchfab.com/Super50)",
      "license": "CC-BY-4.0 (http://creativecommons.org/licenses/by/4.0/)",
      "source": "https://sketchfab.com/3d-models/gorilla-tag-stick-7bd2ab579f8a46e0ad59587c59e6852f",
      "title": "Gorilla Tag Stick"
    },
    "generator": "Sketchfab-14.95.0",
    "version": "2.0"
  },
  "bufferViews": [
    {
      "buffer": 0,
      "byteLength": 3888,
      "name": "floatBufferViews",
      "target": 34963
    },
    {
      "buffer": 0,
      "byteLength": 4000,
      "byteOffset": 3888,
      "byteStride": 8,
      "name": "floatBufferViews",
      "target": 34962
    },
    {
      "buffer": 0,
      "byteLength": 12000,
      "byteOffset": 7888,
      "byteStride": 12,
      "name": "floatBufferViews",
      "target": 34962
    }
  ],
  "buffers": [
    {
      "byteLength": 19888,
      "uri": "scene.bin"
    }
  ],
  "materials": [
    {
      "doubleSided": true,
      "name": "Material.002",
      "pbrMetallicRoughness": {
        "baseColorFactor": [
          0.0925066476767465,
          0.026812604929070193,
          0.0,
          1.0
        ],
        "metallicFactor": 0.0,
        "roughnessFactor": 0.6
      }
    }
  ],
  "meshes": [
    {
      "name": "Object_0",
      "primitives": [
        {
          "attributes": {
            "NORMAL": 1,
            "POSITION": 0,
            "TEXCOORD_0": 2
          },
          "indices": 3,
          "material": 0,
          "mode": 4
        }
      ]
    }
  ],
  "nodes": [
    {
      "children": [
        1
      ],
      "matrix": [
        1.0,
        0.0,
        0.0,
        0.0,
        0.0,
        2.220446049250313e-16,
        -1.0,
        0.0,
        0.0,
        1.0,
        2.220446049250313e-16,
        0.0,
        0.0,
        0.0,
        0.0,
        1.0
      ],
      "name": "Sketchfab_model"
    },
    {
      "children": [
        2
      ],
      "name": "33dd7dd3a3884ed0b94499eeb71cc3e7.obj.cleaner.materialmerger.gles"
    },
    {
      "mesh": 0,
      "name": "Object_2"
    }
  ],
  "scene": 0,
  "scenes": [
    {
      "name": "Sketchfab_Scene",
      "nodes": [
        0
      ]
    }
  ]
}
