{
  "accessors": [
    {
      "bufferView": 1,
      "componentType": 5126,
      "count": 270,
      "max": [
        43.242271423339844,
        -20.754486083984375,
        71.26205444335938
      ],
      "min": [
        -38.003997802734375,
        -151.8206787109375,
        -53.27647018432617
      ],
      "type": "VEC3"
    },
    {
      "bufferView": 1,
      "byteOffset": 3240,
      "componentType": 5126,
      "count": 270,
      "max": [
        0.9973210692405701,
        0.9972525835037231,
        0.9098096489906311
      ],
      "min": [
        -0.9953283667564392,
        -0.903950035572052,
        -0.9834173321723938
      ],
      "type": "VEC3"
    },
    {
      "bufferView": 0,
      "componentType": 5125,
      "count": 270,
      "type": "SCALAR"
    },
    {
      "bufferView": 1,
      "byteOffset": 6480,
      "componentType": 5126,
      "count": 36,
      "max": [
        71.94979858398438,
        -30.875396728515625,
        -41.40459060668945
      ],
      "min": [
        42.242431640625,
        -45.2608642578125,
        -60.584171295166016
      ],
      "type": "VEC3"
    },
    {
      "bufferView": 1,
      "byteOffset": 6912,
      "componentType": 5126,
      "count": 36,
      "max": [
        0.7635334730148315,
        0.8556216955184937,
        0.9261243939399719
      ],
      "min": [
        -0.2912185788154602,
        -0.7541037201881409,
        -0.7472476959228516
      ],
      "type": "VEC3"
    },
    {
      "bufferView": 0,
      "byteOffset": 1080,
      "componentType": 5125,
      "count": 36,
      "type": "SCALAR"
    }
  ],
  "asset": {
    "extras": {
      "author": "Andrew Sink (https://sketchfab.com/andrewsink)",
      "license": "CC-BY-4.0 (http://creativecommons.org/licenses/by/4.0/)",
      "source": "https://sketchfab.com/3d-models/low-poly-banana-ce5f751cf8044affaef94d79f0057f5d",
      "title": "Low Poly Banana"
    },
    "generator": "Sketchfab-15.33.0",
    "version": "2.0"
  },
  "bufferViews": [
    {
      "buffer": 0,
      "byteLength": 1224,
      "name": "floatBufferViews",
      "target": 34963
    },
    {
      "buffer": 0,
      "byteLength": 7344,
      "byteOffset": 1224,
      "byteStride": 12,
      "name": "floatBufferViews",
      "target": 34962
    }
  ],
  "buffers": [
    {
      "byteLength": 8568,
      "uri": "tf.bin"
    }
  ],
  "materials": [
    {
      "doubleSided": true,
      "name": "Material",
      "pbrMetallicRoughness": {
        "baseColorFactor": [
          0.8,
          0.527557,
          0.106039,
          1.0
        ],
        "metallicFactor": 0.0,
        "roughnessFactor": 0.8011823178082373
      }
    },
    {
      "doubleSided": true,
      "name": "Stem",
      "pbrMetallicRoughness": {
        "baseColorFactor": [
          0.420035,
          0.121573,
          0.0,
          1.0
        ],
        "metallicFactor": 0.0,
        "roughnessFactor": 0.8011823178082373
      }
    }
  ],
  "meshes": [
    {
      "name": "Object_0",
      "primitives": [
        {
          "attributes": {
            "NORMAL": 1,
            "POSITION": 0
          },
          "indices": 2,
          "material": 0,
          "mode": 4
        }
      ]
    },
    {
      "name": "Object_1",
      "primitives": [
        {
          "attributes": {
            "NORMAL": 4,
            "POSITION": 3
          },
          "indices": 5,
          "material": 1,
          "mode": 4
        }
      ]
    }
  ],
  "nodes": [
    {
      "children": [
        1
      ],
      "matrix": [
        -0.6888742446899414,
        0.6874992251396179,
        0.22977609932422652,
        0.0,
        -0.7244616150856018,
        -0.6637510061264038,
        -0.18598379194736495,
        0.0,
        0.024650393053889275,
        -0.29458341002464317,
        0.9553077816963195,
        0.0,
        0.0,
        0.0,
        0.0,
        1.0
      ],
      "name": "Sketchfab_model"
    },
    {
      "children": [
        2,
        3
      ],
      "name": "low_poly_banana.obj.cleaner.materialmerger.gles"
    },
    {
      "mesh": 0,
      "name": "Object_2"
    },
    {
      "mesh": 1,
      "name": "Object_3"
    }
  ],
  "scene": 0,
  "scenes": [
    {
      "name": "Sketchfab_Scene",
      "nodes": [
        0
      ]
    }
  ]
}
